<?xml version="1.0" encoding="utf-8" standalone="no"?>
<!DOCTYPE svg PUBLIC "-//W3C//DTD SVG 1.1//EN"
  "http://www.w3.org/Graphics/SVG/1.1/DTD/svg11.dtd">
<!-- Created with matplotlib (https://matplotlib.org/) -->
<svg height="303.12pt" version="1.1" viewBox="0 0 752.4 303.12" width="752.4pt" xmlns="http://www.w3.org/2000/svg" xmlns:xlink="http://www.w3.org/1999/xlink">
 <defs>
  <style type="text/css">
*{stroke-linecap:butt;stroke-linejoin:round;}
  </style>
 </defs>
 <g id="figure_1">
  <g id="patch_1">
   <path d="M 0 303.12 
L 752.4 303.12 
L 752.4 0 
L 0 0 
z
" style="fill: transparent"/>
  </g>
  <g id="axes_1">
   <g id="LineCollection_1">
    <path clip-path="url(#pe6581d8289)" d="M 273.805002 26.957348 
L 201.42043 123.037654 
" style="fill:none;stroke:#a9a9a9;"/>
    <path clip-path="url(#pe6581d8289)" d="M 273.805002 26.957348 
L 381.167809 137.23378 
" style="fill:none;stroke:#a9a9a9;"/>
    <path clip-path="url(#pe6581d8289)" d="M 201.42043 123.037654 
L 53.113405 130.171793 
" style="fill:none;stroke:#a9a9a9;"/>
    <path clip-path="url(#pe6581d8289)" d="M 201.42043 123.037654 
L 381.167809 137.23378 
" style="fill:none;stroke:#a9a9a9;"/>
    <path clip-path="url(#pe6581d8289)" d="M 381.167809 137.23378 
L 464.625975 234.698325 
" style="fill:none;stroke:#a9a9a9;"/>
    <path clip-path="url(#pe6581d8289)" d="M 381.167809 137.23378 
L 554.828665 207.071885 
" style="fill:none;stroke:#a9a9a9;"/>
    <path clip-path="url(#pe6581d8289)" d="M 381.167809 137.23378 
L 497.69422 103.432899 
" style="fill:none;stroke:#a9a9a9;"/>
    <path clip-path="url(#pe6581d8289)" d="M 464.625975 234.698325 
L 554.828665 207.071885 
" style="fill:none;stroke:#a9a9a9;"/>
    <path clip-path="url(#pe6581d8289)" d="M 464.625975 234.698325 
L 497.69422 103.432899 
" style="fill:none;stroke:#a9a9a9;"/>
    <path clip-path="url(#pe6581d8289)" d="M 554.828665 207.071885 
L 497.69422 103.432899 
" style="fill:none;stroke:#a9a9a9;"/>
    <path clip-path="url(#pe6581d8289)" d="M 554.828665 207.071885 
L 699.286595 276.162652 
" style="fill:none;stroke:#a9a9a9;"/>
   </g>
   <g id="PathCollection_1">
    <defs>
     <path d="M 0 11.18034 
C 2.965061 11.18034 5.80908 10.002309 7.905694 7.905694 
C 10.002309 5.80908 11.18034 2.965061 11.18034 0 
C 11.18034 -2.965061 10.002309 -5.80908 7.905694 -7.905694 
C 5.80908 -10.002309 2.965061 -11.18034 0 -11.18034 
C -2.965061 -11.18034 -5.80908 -10.002309 -7.905694 -7.905694 
C -10.002309 -5.80908 -11.18034 -2.965061 -11.18034 0 
C -11.18034 2.965061 -10.002309 5.80908 -7.905694 7.905694 
C -5.80908 10.002309 -2.965061 11.18034 0 11.18034 
z
" id="me9ce331701" style="stroke:#add8e6;"/>
    </defs>
    <g clip-path="url(#pe6581d8289)">
     <use style="fill:#add8e6;stroke:#add8e6;" x="273.805002" xlink:href="#me9ce331701" y="26.957348"/>
     <use style="fill:#add8e6;stroke:#add8e6;" x="201.42043" xlink:href="#me9ce331701" y="123.037654"/>
     <use style="fill:#add8e6;stroke:#add8e6;" x="53.113405" xlink:href="#me9ce331701" y="130.171793"/>
     <use style="fill:#add8e6;stroke:#add8e6;" x="381.167809" xlink:href="#me9ce331701" y="137.23378"/>
     <use style="fill:#add8e6;stroke:#add8e6;" x="464.625975" xlink:href="#me9ce331701" y="234.698325"/>
     <use style="fill:#add8e6;stroke:#add8e6;" x="554.828665" xlink:href="#me9ce331701" y="207.071885"/>
     <use style="fill:#add8e6;stroke:#add8e6;" x="497.69422" xlink:href="#me9ce331701" y="103.432899"/>
     <use style="fill:#add8e6;stroke:#add8e6;" x="699.286595" xlink:href="#me9ce331701" y="276.162652"/>
    </g>
   </g>
   <g id="text_1">
    <g clip-path="url(#pe6581d8289)">
     <!-- ARGGYSYGFDY -->
     <defs>
      <path d="M 34.1875 63.1875 
L 20.796875 26.90625 
L 47.609375 26.90625 
z
M 28.609375 72.90625 
L 39.796875 72.90625 
L 67.578125 0 
L 57.328125 0 
L 50.6875 18.703125 
L 17.828125 18.703125 
L 11.1875 0 
L 0.78125 0 
z
" id="DejaVuSans-65"/>
      <path d="M 44.390625 34.1875 
Q 47.5625 33.109375 50.5625 29.59375 
Q 53.5625 26.078125 56.59375 19.921875 
L 66.609375 0 
L 56 0 
L 46.6875 18.703125 
Q 43.0625 26.03125 39.671875 28.421875 
Q 36.28125 30.8125 30.421875 30.8125 
L 19.671875 30.8125 
L 19.671875 0 
L 9.8125 0 
L 9.8125 72.90625 
L 32.078125 72.90625 
Q 44.578125 72.90625 50.734375 67.671875 
Q 56.890625 62.453125 56.890625 51.90625 
Q 56.890625 45.015625 53.6875 40.46875 
Q 50.484375 35.9375 44.390625 34.1875 
z
M 19.671875 64.796875 
L 19.671875 38.921875 
L 32.078125 38.921875 
Q 39.203125 38.921875 42.84375 42.21875 
Q 46.484375 45.515625 46.484375 51.90625 
Q 46.484375 58.296875 42.84375 61.546875 
Q 39.203125 64.796875 32.078125 64.796875 
z
" id="DejaVuSans-82"/>
      <path d="M 59.515625 10.40625 
L 59.515625 29.984375 
L 43.40625 29.984375 
L 43.40625 38.09375 
L 69.28125 38.09375 
L 69.28125 6.78125 
Q 63.578125 2.734375 56.6875 0.65625 
Q 49.8125 -1.421875 42 -1.421875 
Q 24.90625 -1.421875 15.25 8.5625 
Q 5.609375 18.5625 5.609375 36.375 
Q 5.609375 54.25 15.25 64.234375 
Q 24.90625 74.21875 42 74.21875 
Q 49.125 74.21875 55.546875 72.453125 
Q 61.96875 70.703125 67.390625 67.28125 
L 67.390625 56.78125 
Q 61.921875 61.421875 55.765625 63.765625 
Q 49.609375 66.109375 42.828125 66.109375 
Q 29.4375 66.109375 22.71875 58.640625 
Q 16.015625 51.171875 16.015625 36.375 
Q 16.015625 21.625 22.71875 14.15625 
Q 29.4375 6.6875 42.828125 6.6875 
Q 48.046875 6.6875 52.140625 7.59375 
Q 56.25 8.5 59.515625 10.40625 
z
" id="DejaVuSans-71"/>
      <path d="M -0.203125 72.90625 
L 10.40625 72.90625 
L 30.609375 42.921875 
L 50.6875 72.90625 
L 61.28125 72.90625 
L 35.5 34.71875 
L 35.5 0 
L 25.59375 0 
L 25.59375 34.71875 
z
" id="DejaVuSans-89"/>
      <path d="M 53.515625 70.515625 
L 53.515625 60.890625 
Q 47.90625 63.578125 42.921875 64.890625 
Q 37.9375 66.21875 33.296875 66.21875 
Q 25.25 66.21875 20.875 63.09375 
Q 16.5 59.96875 16.5 54.203125 
Q 16.5 49.359375 19.40625 46.890625 
Q 22.3125 44.4375 30.421875 42.921875 
L 36.375 41.703125 
Q 47.40625 39.59375 52.65625 34.296875 
Q 57.90625 29 57.90625 20.125 
Q 57.90625 9.515625 50.796875 4.046875 
Q 43.703125 -1.421875 29.984375 -1.421875 
Q 24.8125 -1.421875 18.96875 -0.25 
Q 13.140625 0.921875 6.890625 3.21875 
L 6.890625 13.375 
Q 12.890625 10.015625 18.65625 8.296875 
Q 24.421875 6.59375 29.984375 6.59375 
Q 38.421875 6.59375 43.015625 9.90625 
Q 47.609375 13.234375 47.609375 19.390625 
Q 47.609375 24.75 44.3125 27.78125 
Q 41.015625 30.8125 33.5 32.328125 
L 27.484375 33.5 
Q 16.453125 35.6875 11.515625 40.375 
Q 6.59375 45.0625 6.59375 53.421875 
Q 6.59375 63.09375 13.40625 68.65625 
Q 20.21875 74.21875 32.171875 74.21875 
Q 37.3125 74.21875 42.625 73.28125 
Q 47.953125 72.359375 53.515625 70.515625 
z
" id="DejaVuSans-83"/>
      <path d="M 9.8125 72.90625 
L 51.703125 72.90625 
L 51.703125 64.59375 
L 19.671875 64.59375 
L 19.671875 43.109375 
L 48.578125 43.109375 
L 48.578125 34.8125 
L 19.671875 34.8125 
L 19.671875 0 
L 9.8125 0 
z
" id="DejaVuSans-70"/>
      <path d="M 19.671875 64.796875 
L 19.671875 8.109375 
L 31.59375 8.109375 
Q 46.6875 8.109375 53.6875 14.9375 
Q 60.6875 21.78125 60.6875 36.53125 
Q 60.6875 51.171875 53.6875 57.984375 
Q 46.6875 64.796875 31.59375 64.796875 
z
M 9.8125 72.90625 
L 30.078125 72.90625 
Q 51.265625 72.90625 61.171875 64.09375 
Q 71.09375 55.28125 71.09375 36.53125 
Q 71.09375 17.671875 61.125 8.828125 
Q 51.171875 0 30.078125 0 
L 9.8125 0 
z
" id="DejaVuSans-68"/>
     </defs>
     <g transform="translate(236.233908 29.716723)scale(0.1 -0.1)">
      <use xlink:href="#DejaVuSans-65"/>
      <use x="68.408203" xlink:href="#DejaVuSans-82"/>
      <use x="137.890625" xlink:href="#DejaVuSans-71"/>
      <use x="215.380859" xlink:href="#DejaVuSans-71"/>
      <use x="292.792969" xlink:href="#DejaVuSans-89"/>
      <use x="353.876953" xlink:href="#DejaVuSans-83"/>
      <use x="417.353516" xlink:href="#DejaVuSans-89"/>
      <use x="478.4375" xlink:href="#DejaVuSans-71"/>
      <use x="555.927734" xlink:href="#DejaVuSans-70"/>
      <use x="613.447266" xlink:href="#DejaVuSans-68"/>
      <use x="690.371094" xlink:href="#DejaVuSans-89"/>
     </g>
    </g>
   </g>
   <g id="text_2">
    <g clip-path="url(#pe6581d8289)">
     <!-- AYGGYSYGFDY -->
     <g transform="translate(164.275117 125.797029)scale(0.1 -0.1)">
      <use xlink:href="#DejaVuSans-65"/>
      <use x="68.298828" xlink:href="#DejaVuSans-89"/>
      <use x="129.382812" xlink:href="#DejaVuSans-71"/>
      <use x="206.873047" xlink:href="#DejaVuSans-71"/>
      <use x="284.285156" xlink:href="#DejaVuSans-89"/>
      <use x="345.369141" xlink:href="#DejaVuSans-83"/>
      <use x="408.845703" xlink:href="#DejaVuSans-89"/>
      <use x="469.929688" xlink:href="#DejaVuSans-71"/>
      <use x="547.419922" xlink:href="#DejaVuSans-70"/>
      <use x="604.939453" xlink:href="#DejaVuSans-68"/>
      <use x="681.863281" xlink:href="#DejaVuSans-89"/>
     </g>
    </g>
   </g>
   <g id="text_3">
    <g clip-path="url(#pe6581d8289)">
     <!-- AYYGYSYGFDY -->
     <g transform="translate(16.788405 132.931168)scale(0.1 -0.1)">
      <use xlink:href="#DejaVuSans-65"/>
      <use x="68.298828" xlink:href="#DejaVuSans-89"/>
      <use x="129.382812" xlink:href="#DejaVuSans-89"/>
      <use x="190.466797" xlink:href="#DejaVuSans-71"/>
      <use x="267.878906" xlink:href="#DejaVuSans-89"/>
      <use x="328.962891" xlink:href="#DejaVuSans-83"/>
      <use x="392.439453" xlink:href="#DejaVuSans-89"/>
      <use x="453.523438" xlink:href="#DejaVuSans-71"/>
      <use x="531.013672" xlink:href="#DejaVuSans-70"/>
      <use x="588.533203" xlink:href="#DejaVuSans-68"/>
      <use x="665.457031" xlink:href="#DejaVuSans-89"/>
     </g>
    </g>
   </g>
   <g id="text_4">
    <g clip-path="url(#pe6581d8289)">
     <!-- AGGGYSYGFDY -->
     <g transform="translate(343.197496 139.993155)scale(0.1 -0.1)">
      <use xlink:href="#DejaVuSans-65"/>
      <use x="68.392578" xlink:href="#DejaVuSans-71"/>
      <use x="145.882812" xlink:href="#DejaVuSans-71"/>
      <use x="223.373047" xlink:href="#DejaVuSans-71"/>
      <use x="300.785156" xlink:href="#DejaVuSans-89"/>
      <use x="361.869141" xlink:href="#DejaVuSans-83"/>
      <use x="425.345703" xlink:href="#DejaVuSans-89"/>
      <use x="486.429688" xlink:href="#DejaVuSans-71"/>
      <use x="563.919922" xlink:href="#DejaVuSans-70"/>
      <use x="621.439453" xlink:href="#DejaVuSans-68"/>
      <use x="698.363281" xlink:href="#DejaVuSans-89"/>
     </g>
    </g>
   </g>
   <g id="text_5">
    <g clip-path="url(#pe6581d8289)">
     <!-- AGGGYSYGFDD -->
     <g transform="translate(425.855663 237.4577)scale(0.1 -0.1)">
      <use xlink:href="#DejaVuSans-65"/>
      <use x="68.392578" xlink:href="#DejaVuSans-71"/>
      <use x="145.882812" xlink:href="#DejaVuSans-71"/>
      <use x="223.373047" xlink:href="#DejaVuSans-71"/>
      <use x="300.785156" xlink:href="#DejaVuSans-89"/>
      <use x="361.869141" xlink:href="#DejaVuSans-83"/>
      <use x="425.345703" xlink:href="#DejaVuSans-89"/>
      <use x="486.429688" xlink:href="#DejaVuSans-71"/>
      <use x="563.919922" xlink:href="#DejaVuSans-70"/>
      <use x="621.439453" xlink:href="#DejaVuSans-68"/>
      <use x="698.441406" xlink:href="#DejaVuSans-68"/>
     </g>
    </g>
   </g>
   <g id="text_6">
    <g clip-path="url(#pe6581d8289)">
     <!-- AGGGYSYGFDG -->
     <g transform="translate(516.034134 209.83126)scale(0.1 -0.1)">
      <use xlink:href="#DejaVuSans-65"/>
      <use x="68.392578" xlink:href="#DejaVuSans-71"/>
      <use x="145.882812" xlink:href="#DejaVuSans-71"/>
      <use x="223.373047" xlink:href="#DejaVuSans-71"/>
      <use x="300.785156" xlink:href="#DejaVuSans-89"/>
      <use x="361.869141" xlink:href="#DejaVuSans-83"/>
      <use x="425.345703" xlink:href="#DejaVuSans-89"/>
      <use x="486.429688" xlink:href="#DejaVuSans-71"/>
      <use x="563.919922" xlink:href="#DejaVuSans-70"/>
      <use x="621.439453" xlink:href="#DejaVuSans-68"/>
      <use x="698.441406" xlink:href="#DejaVuSans-71"/>
     </g>
    </g>
   </g>
   <g id="text_7">
    <g clip-path="url(#pe6581d8289)">
     <!-- AGGGYSYGFDA -->
     <g transform="translate(459.354376 106.192274)scale(0.1 -0.1)">
      <use xlink:href="#DejaVuSans-65"/>
      <use x="68.392578" xlink:href="#DejaVuSans-71"/>
      <use x="145.882812" xlink:href="#DejaVuSans-71"/>
      <use x="223.373047" xlink:href="#DejaVuSans-71"/>
      <use x="300.785156" xlink:href="#DejaVuSans-89"/>
      <use x="361.869141" xlink:href="#DejaVuSans-83"/>
      <use x="425.345703" xlink:href="#DejaVuSans-89"/>
      <use x="486.429688" xlink:href="#DejaVuSans-71"/>
      <use x="563.919922" xlink:href="#DejaVuSans-70"/>
      <use x="621.439453" xlink:href="#DejaVuSans-68"/>
      <use x="698.425781" xlink:href="#DejaVuSans-65"/>
     </g>
    </g>
   </g>
   <g id="text_8">
    <g clip-path="url(#pe6581d8289)">
     <!-- AGGGYSGGFDG -->
     <g transform="translate(659.671751 278.922027)scale(0.1 -0.1)">
      <use xlink:href="#DejaVuSans-65"/>
      <use x="68.392578" xlink:href="#DejaVuSans-71"/>
      <use x="145.882812" xlink:href="#DejaVuSans-71"/>
      <use x="223.373047" xlink:href="#DejaVuSans-71"/>
      <use x="300.785156" xlink:href="#DejaVuSans-89"/>
      <use x="361.869141" xlink:href="#DejaVuSans-83"/>
      <use x="425.345703" xlink:href="#DejaVuSans-71"/>
      <use x="502.835938" xlink:href="#DejaVuSans-71"/>
      <use x="580.326172" xlink:href="#DejaVuSans-70"/>
      <use x="637.845703" xlink:href="#DejaVuSans-68"/>
      <use x="714.847656" xlink:href="#DejaVuSans-71"/>
     </g>
    </g>
   </g>
  </g>
 </g>
 <defs>
  <clipPath id="pe6581d8289">
   <rect height="291.753" width="724.185" x="14.1075" y="5.6835"/>
  </clipPath>
 </defs>
</svg>
